<?xml version="1.0" encoding="UTF-8"?>
<svg xmlns="http://www.w3.org/2000/svg" xmlns:xlink="http://www.w3.org/1999/xlink" width="174" height="131" viewBox="0 0 174 131">
    <title>
        Group 8 Copy 2
    </title>
    <desc>
        Created with Sketch.
    </desc>
    <defs>
        <rect id="path-1" width="172" height="122" x="0" y="0" rx="2"/>
        <rect id="path-3" width="172" height="122" x="0" y="0" rx="2"/>
    </defs>
    <g id="Mobile-and-desktop" fill="none" fill-rule="evenodd" stroke="none" stroke-width="1">
        <g id="1-Onboarding-desktop" transform="translate(-553 -232)">
            <g id="Group-23" transform="translate(290 150)">
                <g id="Group-8-Copy-2" transform="translate(264 83)">
                    <rect id="Second-image" width="165" height="117" x="4" y="0" fill="#C8CCD1" stroke="#A2A9B1" stroke-width="2" rx="2"/>
                    <g id="Group" transform="translate(0 7)">
                        <g id="Illustration">
                            <mask id="mask-2" fill="#fff">
                                <use xlink:href="#path-1"/>
                            </mask>
                            <use id="Mask" fill="#F5F5F5" xlink:href="#path-1"/>
                            <g mask="url(#mask-2)">
                                <g transform="translate(0 14)">
                                    <ellipse id="Oval" cx="27.57" cy="15" fill="#A2A9B1" rx="15.57" ry="15"/>
                                    <path id="Path-3" fill="#A2A9B1" d="M114.803682,47 C114.803682,47 143.896267,65.8652986 150.441766,58.9243847 C156.987266,51.9834708 150.441766,69 150.441766,69 L93,69"/>
                                    <path id="Path-4" fill="#A2A9B1" d="M0,58 C0,58 23.2441457,73.8439867 55.6372305,73.8439867 C88.0303152,73.8439867 63.5627933,84 63.5627933,84 L0.0706939786,84"/>
                                    <path id="Path-2" fill="#C8CCD1" d="M115.038049,54.4302387 C99.135033,84.3919472 172,47.3936157 172,47.3936157 L172,84 L172,120 L0,120 L1.19348975e-15,84 C1.19348975e-15,84 130.941066,24.4685303 115.038049,54.4302387 Z"/>
                                </g>
                            </g>
                        </g>
                        <mask id="mask-4" fill="#fff">
                            <use xlink:href="#path-3"/>
                        </mask>
                        <use id="Mask" stroke="#A2A9B1" stroke-width="2" xlink:href="#path-3"/>
                    </g>
                </g>
            </g>
        </g>
    </g>
</svg>
