<?xml version="1.0" encoding="UTF-8"?>
<svg width="20px" height="20px" viewBox="0 0 20 20" version="1.1" xmlns="http://www.w3.org/2000/svg" xmlns:xlink="http://www.w3.org/1999/xlink">
    <!-- Generator: Sketch 58 (84663) - https://sketch.com -->
    <title>Proposed echo icon</title>
    <desc>Created with Sketch.</desc>
    <g id="Proposed-echo-icon" stroke="none" stroke-width="1" fill="none" fill-rule="evenodd">
        <path d="M10.5714097,6 L1.6,6 C0.71634408,6 0,6.6715725 0,7.5 L0,16.5 C0,17.3284275 0.71634432,18 1.6,18 L14.4,18 C15.283656,18 16,17.3284275 16,16.5 L16,11.4209635 C15.5918147,11.0156415 13.7822846,9.20865366 10.5714097,6 Z M2,15 L5.25397797,10.5 L7.57711138,13.5085714 L10.8231334,9 L15,15 L2,15 Z" id="Fill-1-Copy" fill="#000000"/>
        <path d="M19.8786291,6.44655491 L15.5569431,2.12450354 C15.4790061,2.04915666 15.3762304,2.00488232 15.2679415,2 L12.4446179,2 C12.1990621,2 12,2.19908116 12,2.44465549 L12,5.26821786 C12.0048806,5.37651815 12.0491534,5.47930027 12.124493,5.55724393 L16.4461789,9.87929486 C16.6173346,10.0402355 16.8841498,10.0402346 17.0553054,9.87929486 L19.8919676,7.04239283 C20.0409679,6.86974777 20.0352013,6.61235761 19.8786291,6.44655402 L19.8786291,6.44655491 Z M14,5 C13.447715,5 13,4.552285 13,4 C13,3.447715 13.4477155,3 14,3 C14.5522845,3 15,3.447715 15,4 C15,4.552285 14.5522845,5 14,5 Z" id="Fill-1-Copy-2" fill="#000000"/>
    </g>
</svg>